<?xml version="1.0" encoding="UTF-8"?>
<svg width="25" height="41" viewBox="0 0 25 41" fill="none" xmlns="http://www.w3.org/2000/svg">
  <!-- Marker Base -->
  <path d="M12.5 0C5.6 0 0 5.6 0 12.5C0 19.4 12.5 41 12.5 41S25 19.4 25 12.5C25 5.6 19.4 0 12.5 0Z" fill="#007bff"/>
  <path d="M12.5 2C6.7 2 2 6.7 2 12.5C2 17.8 12.5 37 12.5 37S23 17.8 23 12.5C23 6.7 18.3 2 12.5 2Z" fill="#ffffff"/>
  
  <!-- Climbing Icon -->
  <g transform="translate(7, 6)">
    <!-- Climber figure -->
    <circle cx="5.5" cy="3" r="1.5" fill="#007bff"/>
    <path d="M5.5 4.5C5.5 4.5 4 5.5 3 7C3 7 3.5 8 4.5 8.5L5.5 10L6.5 8.5C7.5 8 8 7 8 7C7 5.5 5.5 4.5 5.5 4.5Z" fill="#007bff"/>
    <!-- Rock/mountain -->
    <path d="M2 12L4 8L6 10L8 8L9 12H2Z" fill="#6c757d" opacity="0.7"/>
  </g>
</svg>